<svg xmlns="http://www.w3.org/2000/svg" viewBox="0 0 800 400">
  <rect width="800" height="400" fill="#f4ecd8"/>
  <!-- two horses -->
  <g stroke="#5b4636" stroke-width="2.5" fill="none">
    <path d="M160 260 Q220 200 320 230 T500 240"/>
    <path d="M160 300 Q230 260 330 280 T520 270"/>
  </g>
  <!-- charioteer -->
  <g fill="#3b2e26">
    <circle cx="580" cy="210" r="18"/>
    <rect x="565" y="230" width="30" height="50" rx="6"/>
    <path d="M580 250 L640 220" stroke="#3b2e26" stroke-width="5" stroke-linecap="round"/>
    <path d="M580 250 L540 290" stroke="#3b2e26" stroke-width="5" stroke-linecap="round"/>
  </g>
  <!-- wings / soul -->
  <path d="M460 180 Q520 120 600 150 Q540 180 460 180" fill="#e0a24e" opacity="0.22"/>
  <path d="M460 220 Q520 160 600 190 Q540 220 460 220" fill="#e0a24e" opacity="0.16"/>
  <!-- heavenly forms above -->
  <g fill="none" stroke="#b8860b" stroke-width="1.5" opacity="0.55">
    <circle cx="220" cy="90" r="22"/><circle cx="320" cy="70" r="18"/><circle cx="420" cy="85" r="26"/>
    <path d="M242 90 L300 70"/><path d="M338 72 L396 82"/>
  </g>
  <text x="400" y="370" text-anchor="middle" font-family="Georgia,'Noto Serif SC',serif" font-size="14" fill="#5b4636" opacity="0.7">灵魂的战车：理性驾驭欲望与意气</text>
</svg>